<?xml version="1.0" standalone="no"?>
<!DOCTYPE svg PUBLIC "-//W3C//DTD SVG 20010904//EN"
 "http://www.w3.org/TR/2001/REC-SVG-20010904/DTD/svg10.dtd">
<svg version="1.0" xmlns="http://www.w3.org/2000/svg"
 width="615.000000pt" height="643.000000pt" viewBox="0 0 615.000000 643.000000"
 preserveAspectRatio="xMidYMid meet">

<g transform="translate(0.000000,643.000000) scale(0.100000,-0.100000)"
fill="#000000" stroke="none">
<path d="M1830 6375 c-306 -53 -566 -242 -709 -515 -27 -52 -62 -135 -78 -185
l-28 -90 -5 -950 -5 -950 -405 -5 -405 -5 -45 -25 c-52 -29 -105 -95 -120
-148 -15 -54 -14 -1548 1 -1608 15 -56 84 -135 141 -160 39 -17 79 -19 440
-22 l397 -3 3 -457 4 -457 28 -90 c99 -322 346 -573 661 -672 l90 -28 1670 0
1670 0 90 28 c328 103 570 353 667 687 37 129 39 263 36 2050 l-3 1735 -21 56
c-47 122 -118 229 -250 379 -139 157 -1124 1135 -1240 1231 -152 125 -264 186
-385 209 -83 16 -2105 11 -2199 -5z m1983 -489 c64 -27 97 -71 123 -161 16
-52 18 -128 23 -595 l6 -535 27 -46 c15 -25 44 -59 64 -74 68 -52 98 -55 599
-55 253 0 490 -5 527 -10 127 -18 186 -50 230 -125 l23 -40 0 -1670 c0 -1406
-2 -1678 -14 -1720 -54 -191 -216 -338 -402 -365 -92 -14 -3026 -13 -3109 1
-139 22 -279 119 -348 241 -59 105 -62 134 -62 577 l0 401 1503 2 c1500 3
1502 3 1547 24 54 25 113 87 131 140 11 32 14 185 14 824 0 775 0 786 -21 830
-23 51 -71 102 -118 128 -29 16 -135 17 -1543 20 l-1513 2 0 901 c0 994 -3
951 63 1068 66 117 209 218 338 240 30 5 465 9 967 10 753 1 918 -1 945 -13z
m-2055 -2621 c53 -8 127 -25 165 -36 l67 -22 0 -128 c0 -121 -1 -129 -19 -129
-11 0 -22 4 -26 9 -11 18 -120 72 -186 91 -94 28 -210 27 -269 -2 -73 -37 -84
-89 -28 -131 14 -11 92 -34 174 -53 82 -19 158 -38 169 -43 11 -6 37 -17 57
-25 60 -24 116 -75 144 -133 24 -48 26 -62 22 -142 -4 -79 -8 -95 -39 -146
-91 -153 -315 -222 -599 -185 -72 10 -125 23 -217 56 l-43 16 0 128 c0 79 4
131 10 135 6 4 39 -11 73 -33 101 -66 185 -93 308 -99 123 -7 166 4 204 48 33
40 32 55 -10 95 -25 24 -51 36 -92 44 -323 63 -425 120 -473 265 -64 192 64
364 309 415 107 23 175 24 299 5z m1096 -5 c112 -28 162 -56 237 -130 51 -52
72 -82 97 -141 68 -163 66 -378 -4 -527 -44 -95 -146 -200 -220 -227 -27 -10
-53 -22 -59 -26 -19 -14 -129 -29 -210 -29 -156 0 -265 35 -363 115 -92 76
-144 168 -168 295 -48 265 34 493 219 612 112 72 316 97 471 58z m-1910 -6
c14 -5 16 -47 16 -367 0 -372 -7 -461 -41 -528 -45 -89 -150 -152 -284 -169
-74 -9 -145 -8 -282 6 l-53 5 0 115 c0 127 0 126 66 97 58 -24 190 -23 235 3
65 38 69 56 69 361 l0 272 -117 3 -118 3 -3 94 c-2 69 1 97 10 103 15 9 478
11 502 2z m2849 -33 c15 -22 27 -42 27 -45 0 -4 17 -32 39 -64 21 -31 58 -88
83 -127 24 -38 66 -103 91 -143 26 -40 47 -75 47 -78 0 -3 12 -22 28 -41 l27
-36 5 284 5 284 123 3 122 3 0 -531 0 -531 -132 3 -133 3 -73 115 c-40 63 -76
122 -80 130 -8 18 -136 226 -199 323 -24 37 -49 78 -55 92 -6 14 -15 25 -20
25 -4 0 -8 -155 -8 -345 l0 -346 -127 3 -128 3 -3 519 c-2 409 0 521 10 528 7
4 83 8 168 8 l155 0 28 -39z"/>
<path d="M2589 3042 c-101 -52 -157 -183 -146 -340 9 -138 47 -221 126 -277
39 -28 49 -30 125 -30 74 0 87 3 125 28 117 78 161 278 102 468 -48 152 -199
221 -332 151z"/>
</g>
</svg>
